<?xml version="1.0" encoding="UTF-8" standalone="no"?><!DOCTYPE svg PUBLIC "-//W3C//DTD SVG 1.1//EN" "http://www.w3.org/Graphics/SVG/1.1/DTD/svg11.dtd"><svg width="100%" height="100%" viewBox="0 0 298 298" version="1.1" xmlns="http://www.w3.org/2000/svg" xmlns:xlink="http://www.w3.org/1999/xlink" xml:space="preserve" xmlns:serif="http://www.serif.com/" style="fill-rule:evenodd;clip-rule:evenodd;stroke-linejoin:round;stroke-miterlimit:2;"><g><path d="M149,0.5c81.959,0 148.5,66.541 148.5,148.5c0,81.959 -66.541,148.5 -148.5,148.5c-81.959,0 -148.5,-66.541 -148.5,-148.5c0,-81.959 66.541,-148.5 148.5,-148.5Zm-10.03,92.372l32.309,-32.309l40.387,40.387c31.206,31.206 31.206,81.876 -0,113.082c-31.206,31.206 -81.877,31.206 -113.083,0l-0.223,-0.222l0.003,-0.003c-4.237,-4.474 -4.164,-11.546 0.22,-15.929c4.383,-4.384 11.456,-4.457 15.929,-0.22l0.003,-0.003l0.223,0.223c22.29,22.29 58.483,22.29 80.773,-0c22.29,-22.29 22.29,-58.484 -0,-80.774l-24.232,-24.232l-16.155,16.155l24.232,24.232c4.458,4.458 4.458,11.697 0,16.155c-4.458,4.458 -11.696,4.458 -16.154,-0l-24.232,-24.232l-16.155,16.154l24.232,24.232c4.458,4.458 4.458,11.697 -0,16.155c-4.458,4.458 -11.697,4.458 -16.155,0l-24.232,-24.232l-24.525,24.526l-0.006,-0.006c-4.476,4.168 -11.496,4.072 -15.855,-0.288c-4.36,-4.36 -4.456,-11.379 -0.289,-15.856l-0.005,-0.005l24.526,-24.526l-24.232,-24.232c-4.458,-4.458 -4.458,-11.696 -0,-16.154c4.458,-4.458 11.696,-4.458 16.154,-0l24.232,24.232l16.155,-16.155l-24.232,-24.232c-4.458,-4.458 -4.458,-11.697 -0,-16.155c4.458,-4.458 11.697,-4.458 16.155,0l24.232,24.232Z" style="fill:#333;"/></g></svg>